# xmcd
#
# Track frame offsets:
#	150
#	17017
#	32982
#	43915
#	58785
#	76852
#	91387
#	105600
#	118797
#	132217
#	151847
#	163515
#	179507
#	192122
#	205697
#	221887
#
# Disc length: 3141 seconds
#
# Revision: 1
# Processed by: cddbd v1.5.2PL0 Copyright (c) Steve Scherf et al.
# Submitted via: audiograbber 1.83.01
#
DISCID=da0c4310
DTITLE=Brendan Magee - Just For You
DYEAR=1900
DGENRE=
TTITLE0=I'm Your Man From Strabane
TTITLE1=Spring Of Irish Heather
TTITLE2=I Know That You Know
TTITLE3=Crystal Chandeliers
TTITLE4=Irish Country Home
TTITLE5=Falling In Love With You Again
TTITLE6=The Day I Left Castlebar
TTITLE7=Runaround Angel
TTITLE8=Tipperary On My Mind
TTITLE9=Irish Harvest Day
TTITLE10=Garrison I Miss You
TTITLE11=Forty Shades Of Green
TTITLE12=Old School Yard
TTITLE13=We're Supposed To Do That Now And Then
TTITLE14=Gentle Mother
TTITLE15=Poor Boy Blues
EXTD=
EXTT0=
EXTT1=
EXTT2=
EXTT3=
EXTT4=
EXTT5=
EXTT6=
EXTT7=
EXTT8=
EXTT9=
EXTT10=
EXTT11=
EXTT12=
EXTT13=
EXTT14=
EXTT15=
PLAYORDER=
